<?xml version="1.0" encoding="UTF-8"?>
<svg version="1.1" xmlns="http://www.w3.org/2000/svg" width="1080" height="1080">
<path d="M0 0 C356.4 0 712.8 0 1080 0 C1080 356.4 1080 712.8 1080 1080 C723.6 1080 367.2 1080 0 1080 C0 723.6 0 367.2 0 0 Z " fill="#FEFEFE" transform="translate(0,0)"/>
<path d="M0 0 C10.03355538 5.67937097 13.59087058 20.67867 18.0625 30.8125 C18.75600125 32.37910498 19.44977493 33.94558938 20.14379883 35.51196289 C21.63686401 38.88222617 23.12883722 42.25296987 24.62011719 45.62402344 C28.79864495 55.06655153 32.99391166 64.50165383 37.1875 73.9375 C37.83176437 75.38752914 37.83176437 75.38752914 38.48904419 76.86685181 C43.96952684 89.20119543 49.46822599 101.52694045 55 113.83837891 C59.4927348 123.84659639 63.94431911 133.87289151 68.39477539 143.89996338 C75.38977764 159.65985537 82.41444422 175.40559621 89.5 191.125 C96.07261755 205.7077158 102.60138693 220.30880003 109.08325195 234.93212891 C112.59430091 242.8518585 116.10877332 250.77006802 119.625 258.6875 C120.05206238 259.6491507 120.47912476 260.61080139 120.91912842 261.60159302 C127.07518478 275.45974398 133.26905714 289.30036612 139.5 303.125 C146.07248843 317.70777445 152.60138651 332.30879908 159.08325195 346.93212891 C162.59430091 354.8518585 166.10877332 362.77006802 169.625 370.6875 C170.05206238 371.6491507 170.47912476 372.61080139 170.91912842 373.60159302 C177.07518478 387.45974398 183.26905714 401.30036612 189.5 415.125 C195.25027554 427.88348138 200.97882332 440.65071442 206.6484375 453.4453125 C208.9895507 458.7280918 211.33920194 464.00700742 213.69241333 469.28440857 C215.50789696 473.35619437 217.32188006 477.42864799 219.13580322 481.50112915 C220.03600225 483.52125053 220.93682727 485.54109309 221.83831787 487.56063843 C223.11272225 490.41594687 224.38471544 493.27231888 225.65625 496.12890625 C226.03496246 496.97585052 226.41367493 497.8227948 226.80386353 498.69540405 C236.84222955 521.27956243 236.84222955 521.27956243 236 529 C234.75 531.9375 234.75 531.9375 232 534 C224.98369725 535.09793113 217.23884045 534.5927509 211 531 C208.62919884 528.93676223 206.50055306 526.74221384 204.3515625 524.44921875 C190.89741042 510.43633943 173.14729343 499.81611838 156 491 C155.29907227 490.63922363 154.59814453 490.27844727 153.87597656 489.90673828 C131.80804835 478.7075487 108.69590314 472.8054841 84.375 468.8125 C83.43567627 468.6575708 82.49635254 468.5026416 81.52856445 468.34301758 C78.35706177 467.84915893 75.1829686 467.41393359 72 467 C71.33233612 466.91139709 70.66467224 466.82279419 69.97677612 466.73150635 C55.54378931 464.87554459 41.18210168 464.69082179 26.64477539 464.73925781 C22.80794586 464.75001277 18.97158136 464.73928258 15.13476562 464.7265625 C2.23950196 464.71890235 -10.2394723 465.13103809 -23 467 C-25.46135387 467.28256453 -27.92360859 467.55739682 -30.38671875 467.82421875 C-47.440809 469.79906092 -63.82969416 472.90702057 -80.49755859 477.11962891 C-83.85349828 477.96317544 -87.2154921 478.77416344 -90.58203125 479.57421875 C-101.10873917 482.09839661 -111.4214878 484.91871176 -121.63671875 488.5078125 C-124.96259222 489.67416016 -128.31576538 490.69172222 -131.6953125 491.69140625 C-137.6005098 493.4918182 -143.3809255 495.55869525 -149.16796875 497.70703125 C-150.06221054 498.03886414 -150.95645233 498.37069702 -151.87779236 498.71258545 C-155.60267482 500.09831628 -159.32574545 501.48874406 -163.04614258 502.88647461 C-165.79266456 503.91662704 -168.54250924 504.93744761 -171.29296875 505.95703125 C-172.13868942 506.27775101 -172.9844101 506.59847076 -173.85575867 506.9289093 C-175.88332002 507.67739465 -177.93978059 508.34675322 -180 509 C-183.312194 507.343903 -184.06941919 503.68543987 -185.46484375 500.41015625 C-185.80968307 499.6161441 -186.1545224 498.82213196 -186.5098114 498.00405884 C-187.26138937 496.27238434 -188.01012851 494.53947569 -188.75640869 492.80551147 C-190.77758539 488.11145367 -192.8210675 483.42712227 -194.86328125 478.7421875 C-195.28655701 477.77002792 -195.70983276 476.79786835 -196.14593506 475.79624939 C-200.54309221 465.71635379 -205.0744133 455.69883735 -209.625 445.6875 C-211.22344145 442.16702265 -212.82101728 438.64615347 -214.41796875 435.125 C-215.00081131 433.83990036 -215.00081131 433.83990036 -215.59542847 432.52883911 C-221.06479198 420.45750243 -226.43000763 408.33988551 -231.79777527 396.22312927 C-234.59123001 389.91833917 -237.39244078 383.61701486 -240.1953125 377.31640625 C-241.09513432 375.29337603 -241.99495529 373.27034543 -242.89477539 371.24731445 C-244.20993904 368.29056154 -245.52518977 365.33384759 -246.84078979 362.37728882 C-251.9320037 350.93467436 -256.99739499 339.48165564 -262 328 C-258.75198071 324.59355863 -255.54716197 321.83921821 -251.59765625 319.28515625 C-250.55544922 318.60735107 -249.51324219 317.9295459 -248.43945312 317.23120117 C-247.31387627 316.50818527 -246.18822309 315.78528818 -245.0625 315.0625 C-243.8779431 314.29515933 -242.69370313 313.52732921 -241.50976562 312.7590332 C-235.51432532 308.87507835 -229.49008882 305.03785591 -223.44604492 301.22998047 C-212.37191546 294.24661387 -201.44696063 287.04658882 -190.54589844 279.79678345 C-188.71462926 278.57898225 -186.88262493 277.36228563 -185.04980469 276.14682007 C-159.31909783 259.07268355 -134.76103917 240.90498877 -112 220 C-111.42459473 219.4750293 -110.84918945 218.95005859 -110.25634766 218.40917969 C-102.4315922 211.260538 -94.90014043 204.06226934 -88 196 C-87.07126878 194.94447033 -86.14151641 193.88983857 -85.2109375 192.8359375 C-49.85634218 152.55042822 -26.46638684 104.34884038 -20 51 C-19.8976001 50.28650391 -19.7952002 49.57300781 -19.68969727 48.83789062 C-19.0085294 43.78023451 -18.89822255 38.73794413 -18.82421875 33.640625 C-18.81217407 32.88296844 -18.80012939 32.12531189 -18.78771973 31.34469604 C-18.73912935 28.17525222 -18.69170714 25.00621497 -18.67407227 21.83642578 C-18.65858941 19.49970568 -18.6184348 17.1644551 -18.57421875 14.828125 C-18.57612717 14.11658264 -18.57803558 13.40504028 -18.58000183 12.67193604 C-18.46153487 7.84948066 -17.39552073 5.40426491 -14 2 C-9.6880847 -0.84863481 -4.9862882 -0.7349046 0 0 Z " fill="#CA3C25" transform="translate(633,163)"/>
<path d="M0 0 C3.29037962 3.81892622 5.04128915 8.2556688 7.03515625 12.828125 C7.42579758 13.7123262 7.8164389 14.5965274 8.21891785 15.50752258 C9.06283932 17.41908519 9.90445513 19.33166702 10.74401855 21.24514771 C12.53408602 25.32475636 14.33516202 29.39947078 16.13589478 33.47438049 C17.06283676 35.57199588 17.98924362 37.66984781 18.91513062 39.76792908 C23.31033685 49.72200586 27.77300829 59.64500589 32.25 69.5625 C38.20100365 82.75567254 44.10899843 95.96698851 49.97454834 109.19836426 C55.00980554 120.55474472 60.09422899 131.88825113 65.20220947 143.21209717 C75.93711965 167.01437915 75.93711965 167.01437915 81.125 178.875 C81.53282715 179.80159424 81.9406543 180.72818848 82.36083984 181.68286133 C82.71871582 182.50681396 83.0765918 183.3307666 83.4453125 184.1796875 C83.74969238 184.87819824 84.05407227 185.57670898 84.36767578 186.29638672 C85 188 85 188 85 190 C62.83433304 199.56552576 40.67505068 208.98322977 17.99255371 217.26898193 C15.80834041 218.0703151 13.62712289 218.87945717 11.44628906 219.68994141 C7.39204255 221.19650073 3.33406653 222.69258327 -0.72668457 224.18151855 C-2.30113733 224.75986769 -3.87465869 225.34076 -5.44714355 225.92443848 C-17.47234835 230.37915506 -28.52170055 233.39114969 -41.4375 233.25 C-42.35418457 233.24250732 -43.27086914 233.23501465 -44.21533203 233.22729492 C-71.45139523 232.79562719 -95.02226676 220.61298437 -113.98461914 201.5012207 C-134.54406826 179.96070118 -141.72374749 150.6939414 -141.3359375 121.703125 C-140.51193758 97.60963977 -128.28613034 75.3149654 -111.8125 58.25 C-111.35721924 57.76756836 -110.90193848 57.28513672 -110.43286133 56.78808594 C-99.75650937 46.22653347 -85.63929922 39.41541942 -72.3125 32.875 C-71.50294861 32.47357788 -70.69339722 32.07215576 -69.85931396 31.65856934 C-52.83038641 23.21611255 -35.51333504 15.45974379 -18.07727051 7.90209961 C-14.36843308 6.2914568 -10.66490184 4.66868523 -6.9609375 3.046875 C-5.61246881 2.45670263 -4.26399889 1.86653305 -2.91552734 1.27636719 C-1.95340332 0.85516602 -0.9912793 0.43396484 0 0 Z " fill="#CA3C25" transform="translate(338,498)"/>
<path d="M0 0 C6.11068508 11.94808559 11.75241047 24.07183051 17.25 36.3125 C18.09819561 38.1949926 18.94658673 40.07739712 19.79516602 41.9597168 C25.66160878 54.98213653 31.48415572 68.02367369 37.26464844 81.08447266 C39.34035384 85.77093312 41.42429064 90.45372944 43.5078125 95.13671875 C51.82675112 113.8358739 60.13648887 132.53911722 68.41744995 151.25512695 C69.26035101 153.15979128 70.10371032 155.06425289 70.94754028 156.96850586 C72.11611324 159.60601465 73.28291864 162.24429803 74.44921875 164.8828125 C74.79614777 165.66500153 75.14307678 166.44719055 75.5005188 167.25308228 C78.00359733 172.92413077 79.19569233 177.09710246 79.3125 183.3125 C79.36857422 185.25576172 79.36857422 185.25576172 79.42578125 187.23828125 C78.8537619 192.29199346 76.92634862 195.25592953 73.18359375 198.64453125 C72.60738281 199.02996094 72.03117188 199.41539062 71.4375 199.8125 C70.85871094 200.21082031 70.27992188 200.60914063 69.68359375 201.01953125 C64.57671018 203.99360962 58.69398872 203.69664282 53 203 C41.04766231 198.73265669 33.92802485 182.49966912 27.80026245 172.2555542 C25.96542186 169.18854737 24.11607365 166.13028272 22.26953125 163.0703125 C21.90267715 162.46144196 21.53582306 161.85257141 21.15785217 161.22525024 C17.95750359 155.91691099 14.70890573 150.63975755 11.4375 145.375 C6.60605897 137.59489194 1.79650175 129.80170332 -3 122 C-11.8000779 107.69256091 -20.61525308 93.39529342 -29.53466797 79.16186523 C-36.40130872 68.20290394 -43.1776311 57.19364967 -49.87890625 46.1328125 C-51.78421842 42.99023211 -53.7033574 39.85786809 -55.65234375 36.7421875 C-56.03527588 36.12883545 -56.41820801 35.5154834 -56.81274414 34.88354492 C-57.78559862 33.33024222 -58.76363347 31.78018716 -59.7421875 30.23046875 C-61 28 -61 28 -61 26 C-59.43040527 25.29822632 -59.43040527 25.29822632 -57.82910156 24.58227539 C-54.71905417 23.19171725 -51.60913752 21.80086707 -48.49926758 20.40991211 C-44.99688751 18.84345248 -41.49406978 17.27797698 -37.9909668 15.71313477 C-27.04538415 10.82239567 -27.04538415 10.82239567 -16.12890625 5.8671875 C-14.73913574 5.2328479 -14.73913574 5.2328479 -13.32128906 4.58569336 C-11.69474852 3.84127723 -10.07025683 3.09236152 -8.44824219 2.33813477 C-3.33161706 0 -3.33161706 0 0 0 Z " fill="#CA3D26" transform="translate(436,717)"/>
<path d="M0 0 C1.30280909 2.82833606 2.59011868 5.66348 3.875 8.5 C4.42220703 9.68722656 4.42220703 9.68722656 4.98046875 10.8984375 C9.30035431 20.4807291 12.44635099 31.04721297 8.8125 41.375 C8.214375 42.24125 7.61625 43.1075 7 44 C6.34 44.969375 5.68 45.93875 5 46.9375 C-2.46040641 55.39115579 -13.67517232 59.26608275 -24 63 C-25.01658691 63.37632568 -25.01658691 63.37632568 -26.05371094 63.76025391 C-28.07189302 64.50286468 -30.09626416 65.2242804 -32.125 65.9375 C-33.32382812 66.35902344 -34.52265625 66.78054688 -35.7578125 67.21484375 C-39.20350367 68.04928221 -40.69629669 68.18373315 -44 67 C-45.75756836 64.59838867 -45.75756836 64.59838867 -47.33984375 61.41796875 C-47.92830078 60.25716797 -48.51675781 59.09636719 -49.12304688 57.90039062 C-49.72830003 56.66297331 -50.33311602 55.42534207 -50.9375 54.1875 C-51.53677956 52.9920191 -52.13767699 51.79734777 -52.74023438 50.60351562 C-53.92684248 48.2393773 -55.10450472 45.87072658 -56.27294922 43.49755859 C-58.45220005 39.08422138 -60.69143738 34.70207444 -62.93579102 30.3215332 C-64 28 -64 28 -64 26 C-62.19535278 25.24493164 -62.19535278 25.24493164 -60.35424805 24.47460938 C-55.79344912 22.56629406 -51.23276834 20.65769655 -46.67211914 18.74902344 C-44.71642106 17.93058979 -42.76069299 17.11222778 -40.80493164 16.29394531 C-38.90474325 15.49890376 -37.00460695 14.7037377 -35.10452271 13.90844727 C-33.20989813 13.11555767 -31.31510241 12.32307692 -29.4201355 11.53100586 C-24.74480268 9.57522933 -20.07429469 7.60917496 -15.41259766 5.62109375 C-14.53440872 5.24762817 -13.65621979 4.8741626 -12.75141907 4.48937988 C-11.09207935 3.7830094 -9.43396426 3.07375308 -7.77726746 2.36120605 C-2.22315002 0 -2.22315002 0 0 0 Z " fill="#CA3D26" transform="translate(530,680)"/>
<path d="M0 0 C11.52673088 6.89028047 18.22667363 16.83203438 22.1015625 29.53125 C24.42585502 40.0297398 23.08463839 49.88196851 17.32421875 59.00390625 C11.12034837 67.37839794 3.99802744 74.74429704 -5.203125 79.671875 C-12.86255539 63.20984628 -20.36920548 46.69047178 -27.69775391 30.078125 C-29.25962321 26.54403475 -30.83038381 23.01398733 -32.40234375 19.484375 C-33.41945708 17.19279099 -34.43639084 14.90112727 -35.453125 12.609375 C-35.93144775 11.5380835 -36.40977051 10.46679199 -36.90258789 9.36303711 C-37.33692139 8.38085205 -37.77125488 7.39866699 -38.21875 6.38671875 C-38.60321289 5.52167725 -38.98767578 4.65663574 -39.38378906 3.76538086 C-40.203125 1.671875 -40.203125 1.671875 -40.203125 -0.328125 C-27.74857049 -5.27364938 -12.29536268 -5.66988227 0 0 Z " fill="#CA3D26" transform="translate(806.203125,377.328125)"/>
</svg>
